<svg width="150" height="62" viewBox="0 0 150 62" fill="none" xmlns="http://www.w3.org/2000/svg">
<g clip-path="url(#clip0_675_4176)">
<path d="M43.4134 2.68542C39.5609 0.950225 35.2941 0 30.8202 0C13.7945 0 0 13.7576 0 30.7377C0 47.7178 13.7945 61.4754 30.8202 61.4754C35.2941 61.4754 39.5609 60.5252 43.4134 58.79C45.4018 57.8811 46.686 55.9393 46.686 53.7497V47.1394V14.2947V7.68443C46.686 5.53609 45.4018 3.55301 43.4134 2.68542ZM30.8202 15.1623C22.2038 15.1623 15.203 22.1857 15.2444 30.779C15.2444 39.3724 22.2038 46.2718 30.8202 46.2718C34.3413 46.2718 37.5725 45.115 40.1823 43.1733C40.3065 43.0906 40.4722 43.1319 40.5137 43.2972L40.9279 45.3629C41.135 46.3131 41.9221 47.0155 42.9163 47.0155L45.4847 47.0981C45.6504 47.0981 45.7332 47.346 45.6089 47.4286C41.6736 50.899 36.4954 53.006 30.8202 53.006C18.4756 53.006 8.49213 43.0493 8.4507 30.7377C8.4507 18.7566 17.9785 8.88254 29.9917 8.42808C35.9569 8.22151 41.4664 10.3698 45.5675 13.9642C45.6918 14.0881 45.6089 14.2947 45.4432 14.2947L42.8749 14.3773C41.9221 14.4186 41.0936 15.121 40.8865 16.0299L40.4722 18.0956C40.4308 18.2195 40.2651 18.3022 40.1408 18.2195C37.5725 16.3191 34.3413 15.1623 30.8202 15.1623ZM39.3538 30.7377C39.3538 34.8691 35.9983 38.2569 31.8144 38.2569C27.6305 38.2569 24.2751 34.9104 24.2751 30.7377C24.2751 26.6063 27.6305 23.2185 31.8144 23.2185C35.9983 23.2185 39.3538 26.565 39.3538 30.7377Z" fill="white"/>
<path d="M75.7664 40.1157H74.855C74.2751 40.1157 73.9851 40.4462 73.9851 40.9833V52.0142C73.9851 52.5926 74.2751 52.8818 74.855 52.8818H75.7664C76.3463 52.8818 76.6363 52.5513 76.6363 52.0142V40.9833C76.6363 40.4462 76.3463 40.1157 75.7664 40.1157Z" fill="white"/>
<path d="M71.2095 40.1157H70.2981C69.7182 40.1157 69.4282 40.4462 69.4282 40.9833V52.0142C69.4282 52.5926 69.7182 52.8818 70.2981 52.8818H71.2095C71.7894 52.8818 72.0794 52.5513 72.0794 52.0142V40.9833C72.0794 40.4462 71.7894 40.1157 71.2095 40.1157Z" fill="white"/>
<path d="M80.1574 42.8427C80.9581 42.8427 81.6073 42.1953 81.6073 41.3967C81.6073 40.5981 80.9581 39.9507 80.1574 39.9507C79.3567 39.9507 78.7075 40.5981 78.7075 41.3967C78.7075 42.1953 79.3567 42.8427 80.1574 42.8427Z" fill="white"/>
<path d="M80.5716 44.2061H79.6602C79.6188 44.2061 79.5774 44.2061 79.5774 44.2061H79.5359H79.4945H79.4531H79.4116H79.3702C79.3288 44.2061 79.3288 44.2061 79.3288 44.2474C79.0388 44.3713 78.9146 44.6605 78.9146 45.0323V51.9731C78.9146 52.5515 79.2045 52.8407 79.7431 52.8407H80.6544C81.1929 52.8407 81.4829 52.5515 81.4829 51.9731V47.8417V45.0323C81.4415 44.5366 81.1515 44.2061 80.5716 44.2061Z" fill="white"/>
<path d="M92.8749 42.2231H91.9636C91.4251 42.2231 91.1351 42.4297 91.0937 43.0081C91.0937 43.1321 91.0937 43.1321 91.0937 43.1321V43.2147C91.0108 43.1321 90.1409 42.2645 88.2353 42.2645C85.3356 42.2645 82.9744 44.6607 82.9744 47.594C82.9744 50.5273 85.3356 52.9235 88.2353 52.9235C89.271 52.9235 90.3066 52.5517 91.0937 52.0559C91.0937 52.6343 91.3836 52.9235 91.9636 52.9235H92.8749C93.2478 52.9235 93.4963 52.7996 93.6206 52.593C93.7034 52.469 93.7449 52.2625 93.7449 52.0559V47.594V43.1321C93.7449 42.5537 93.4549 42.2231 92.8749 42.2231ZM88.4425 50.6099C86.8683 50.6099 85.5427 49.3705 85.5427 47.594C85.5427 45.8175 86.8269 44.5781 88.4425 44.5781C90.0166 44.5781 91.3422 45.8175 91.3422 47.594C91.3422 49.3705 90.0166 50.6099 88.4425 50.6099Z" fill="white"/>
<path d="M98.3016 52.0144V47.883C98.3016 45.9413 99.5029 44.3713 101.367 44.3713C102.693 44.3713 103.065 45.2389 103.065 46.561V52.0144C103.065 52.5928 103.397 52.882 103.935 52.882H104.847C105.427 52.882 105.717 52.5928 105.717 52.0144V46.0239C105.717 43.2145 104.35 41.9751 101.988 41.9751C99.8343 41.9751 98.633 43.3385 98.1773 44.2474C98.1773 44.2474 98.2187 43.9995 98.2187 43.7516V43.0906C98.2187 42.5122 97.9288 42.223 97.3488 42.223H96.5203C95.9404 42.223 95.6504 42.5535 95.6504 43.0906V52.0144C95.6504 52.5928 95.9404 52.882 96.5203 52.882H97.4317C98.0116 52.9233 98.3016 52.6341 98.3016 52.0144Z" fill="white"/>
<path d="M120.008 52.3451C120.091 52.3864 120.174 52.4278 120.257 52.4691C121.085 52.9235 122.038 53.1714 123.157 53.1714C123.488 53.1714 123.778 53.1301 124.068 53.1301C124.275 53.0888 124.441 53.0888 124.607 53.0475C125.559 52.8409 126.305 52.4278 126.802 52.1386C126.885 52.0972 126.968 52.0146 127.009 51.9733C127.133 51.8494 127.216 51.7254 127.216 51.5602C127.258 51.3949 127.175 51.1883 127.092 50.9818L126.926 50.6926L126.844 50.5686C126.719 50.3207 126.554 50.1968 126.346 50.1555C126.305 50.1555 126.305 50.1555 126.264 50.1555C126.222 50.1555 126.222 50.1555 126.181 50.1555C126.015 50.1555 125.849 50.1968 125.642 50.2794C125.145 50.6099 124.317 50.9818 123.322 50.9818C122.908 50.9818 122.535 50.8991 122.162 50.7752C122.08 50.7339 121.997 50.6926 121.914 50.6513C121.831 50.6099 121.748 50.5686 121.665 50.5273C121.458 50.4034 121.251 50.2794 121.085 50.1142C120.961 50.0315 120.878 49.9076 120.795 49.7837C120.423 49.3292 120.215 48.7508 120.133 48.0071H126.636C126.719 48.0071 126.761 48.0071 126.844 48.0071C126.885 48.0071 126.885 48.0071 126.926 47.9658C127.009 47.9245 127.092 47.8832 127.175 47.8419C127.216 47.8006 127.258 47.7593 127.299 47.718C127.341 47.6766 127.382 47.6353 127.423 47.594C127.506 47.4288 127.589 47.2635 127.589 47.0982C127.589 45.7349 127.216 44.5368 126.512 43.6279C126.305 43.38 126.098 43.1734 125.891 42.9668C125.766 42.8842 125.642 42.8016 125.518 42.7189C125.435 42.6776 125.394 42.6363 125.311 42.595C125.104 42.4711 124.897 42.3884 124.648 42.3058C124.109 42.0992 123.529 42.0166 122.867 42.0166C121.624 42.0166 120.547 42.3471 119.677 42.9668C119.553 43.0495 119.428 43.1321 119.304 43.256C119.097 43.4213 118.931 43.5865 118.766 43.7931C117.896 44.7846 117.44 46.1067 117.44 47.6353C117.399 49.5771 118.351 51.3536 120.008 52.3451ZM122.784 43.9997C123.985 43.9997 124.897 44.8673 124.938 46.3546H120.215C120.423 44.9499 121.417 43.9997 122.784 43.9997Z" fill="white"/>
<path d="M112.966 44.2474C113.877 44.2474 114.582 44.6192 115.037 44.9084C115.534 45.1563 115.907 45.1563 116.197 44.6605L116.487 44.2474C116.777 43.7929 116.777 43.3385 116.321 43.0493C115.7 42.5948 114.54 41.9751 112.8 41.9751C109.238 41.9751 107.001 44.5366 107.001 47.5525C107.001 50.6511 109.279 53.1299 112.8 53.1299C114.664 53.1299 115.949 52.3863 116.611 51.8905C117.026 51.6013 117.108 51.1881 116.86 50.7337L116.653 50.3206C116.363 49.8248 115.99 49.7422 115.451 50.0314C114.954 50.4032 114.126 50.8576 113.049 50.8576C110.978 50.8576 109.693 49.329 109.693 47.5112C109.693 45.7347 110.978 44.2474 112.966 44.2474Z" fill="white"/>
<path d="M66.57 42.2231H65.6587C65.1201 42.2231 64.8302 42.4297 64.7887 43.0081C64.7887 43.1321 64.7887 43.1321 64.7887 43.1321V43.2147C64.7059 43.1321 63.836 42.2645 61.9304 42.2645C59.0307 42.2645 56.6694 44.6607 56.6694 47.594C56.6694 50.5273 59.0307 52.9235 61.9304 52.9235C62.966 52.9235 64.0017 52.5517 64.7887 52.0559C64.7887 52.6343 65.0787 52.9235 65.6587 52.9235H66.57C66.9428 52.9235 67.1914 52.7996 67.3157 52.593C67.3985 52.469 67.4399 52.2625 67.4399 52.0559V47.594V43.1321C67.4399 42.5537 67.15 42.2231 66.57 42.2231ZM62.1375 50.6099C60.5634 50.6099 59.2378 49.3705 59.2378 47.594C59.2378 45.8175 60.522 44.5781 62.1375 44.5781C63.7117 44.5781 65.0373 45.8175 65.0373 47.594C65.0787 49.3705 63.7531 50.6099 62.1375 50.6099Z" fill="white"/>
<path d="M114.83 36.4389H115.742C116.321 36.4389 116.611 36.1497 116.611 35.5713V32.1423C116.611 30.2005 117.564 28.2587 119.511 28.2587C120.091 28.2587 120.423 27.9282 120.423 27.3911V26.5649C120.423 25.9865 120.215 25.6973 119.635 25.6973C118.144 25.6973 116.943 27.1019 116.529 28.3827H116.487C116.487 28.3827 116.57 28.0522 116.57 27.639V26.6475C116.57 26.0691 116.239 25.7799 115.7 25.7799H114.872C114.292 25.7799 114.002 26.1104 114.002 26.6475V35.5713C113.96 36.1497 114.25 36.4389 114.83 36.4389Z" fill="white"/>
<path d="M77.1332 25.7803H76.2219C75.6834 25.7803 75.3934 25.9868 75.352 26.5652C75.352 26.6892 75.352 26.6892 75.352 26.6892V26.7718C75.2691 26.6892 74.3992 25.8216 72.4936 25.8216C69.5939 25.8216 67.2327 28.2178 67.2327 31.1511C67.2327 34.0844 69.5939 36.4806 72.4936 36.4806C73.5293 36.4806 74.5649 36.1088 75.352 35.613C75.352 36.1914 75.6419 36.4806 76.2219 36.4806H77.1332C77.5061 36.4806 77.7546 36.3567 77.8789 36.1501C77.9617 36.0262 78.0032 35.8196 78.0032 35.613V31.1098V26.6479C78.0032 26.1108 77.6718 25.7803 77.1332 25.7803ZM72.7008 34.167C71.1266 34.167 69.801 32.9276 69.801 31.1511C69.801 29.3746 71.0852 28.1352 72.7008 28.1352C74.2749 28.1352 75.6005 29.3746 75.6005 31.1511C75.6005 32.9276 74.2749 34.167 72.7008 34.167Z" fill="white"/>
<path d="M82.5601 35.5716V31.4401C82.5601 29.4984 83.7614 27.9284 85.6255 27.9284C86.9511 27.9284 87.3239 28.796 87.3239 30.1181V35.5716C87.3239 36.15 87.6553 36.4392 88.1939 36.4392H89.1052C89.6852 36.4392 89.9751 36.15 89.9751 35.5716V29.581C89.9751 26.7716 88.6081 25.5322 86.2469 25.5322C84.0928 25.5322 82.8915 26.8956 82.4358 27.8045H82.3944C82.3944 27.8045 82.4358 27.5566 82.4358 27.3087V26.6477C82.4358 26.0693 82.1458 25.7801 81.5659 25.7801H80.7374C80.1574 25.7801 79.8674 26.1106 79.8674 26.6477V35.5716C79.8674 36.15 80.1574 36.4392 80.7374 36.4392H81.6487C82.2701 36.4392 82.5601 36.15 82.5601 35.5716Z" fill="white"/>
<path d="M104.764 35.9023C104.847 35.9436 104.929 35.9849 105.012 36.0262C105.841 36.4807 106.794 36.7285 107.912 36.7285C108.243 36.7285 108.533 36.6872 108.823 36.6872C109.031 36.6459 109.196 36.6459 109.362 36.6046C110.315 36.398 111.06 35.9849 111.557 35.6957C111.64 35.6544 111.723 35.5717 111.765 35.5304C111.889 35.4065 111.972 35.2825 111.972 35.1173C112.013 34.952 111.93 34.7455 111.847 34.5389L111.682 34.2497L111.599 34.1258C111.475 33.8779 111.309 33.7539 111.102 33.7126C111.06 33.7126 111.06 33.7126 111.019 33.7126C110.977 33.7126 110.977 33.7126 110.936 33.7126C110.77 33.7126 110.605 33.7539 110.398 33.8366C109.9 34.1671 109.072 34.5389 108.078 34.5389C107.663 34.5389 107.291 34.4563 106.918 34.3323C106.835 34.291 106.752 34.2497 106.669 34.2084C106.586 34.1671 106.504 34.1258 106.421 34.0844C106.214 33.9605 106.006 33.8366 105.841 33.6713C105.717 33.5887 105.634 33.4647 105.551 33.3408C105.178 32.8863 104.971 32.3079 104.888 31.5643H111.392C111.475 31.5643 111.516 31.5643 111.599 31.5643C111.64 31.5643 111.64 31.5643 111.682 31.523C111.765 31.4817 111.847 31.4403 111.93 31.399C111.972 31.3577 112.013 31.3164 112.055 31.2751C112.096 31.2338 112.137 31.1925 112.179 31.1511C112.262 30.9859 112.345 30.8206 112.345 30.6554C112.345 29.292 111.972 28.0939 111.267 27.185C111.06 26.9371 110.853 26.7305 110.646 26.524C110.522 26.4413 110.398 26.3587 110.273 26.2761C110.19 26.2348 110.149 26.1934 110.066 26.1521C109.859 26.0282 109.652 25.9456 109.403 25.8629C108.865 25.6564 108.285 25.5737 107.622 25.5737C106.379 25.5737 105.302 25.9042 104.432 26.524C104.308 26.6066 104.184 26.6892 104.06 26.8132C103.852 26.9784 103.687 27.1437 103.521 27.3502C102.651 28.3418 102.195 29.6638 102.195 31.1925C102.154 33.1342 103.107 34.9107 104.764 35.9023ZM107.498 27.5568C108.699 27.5568 109.61 28.4244 109.652 29.9117H104.929C105.178 28.507 106.172 27.5568 107.498 27.5568Z" fill="white"/>
<path d="M97.5145 27.8045C98.4259 27.8045 99.1301 28.1763 99.5858 28.4655C100.083 28.7134 100.456 28.7134 100.746 28.2176L101.036 27.8045C101.326 27.35 101.326 26.8956 100.87 26.6064C100.249 26.1519 99.0887 25.5322 97.3488 25.5322C93.7863 25.5322 91.5493 28.0937 91.5493 31.1096C91.5493 34.2082 93.8277 36.687 97.3488 36.687C99.2129 36.687 100.497 35.9434 101.16 35.4476C101.574 35.1584 101.657 34.7453 101.408 34.2908L101.201 33.8777C100.911 33.3819 100.539 33.2993 100 33.5885C99.5029 33.9603 98.6744 34.4148 97.5974 34.4148C95.5261 34.4148 94.2419 32.8861 94.2419 31.0683C94.2419 29.2918 95.5261 27.8045 97.5145 27.8045Z" fill="white"/>
<path d="M62.4689 36.7699C64.333 36.7699 65.6172 36.0262 66.28 35.5304C66.6942 35.2412 66.7771 34.8281 66.5285 34.3736L66.3214 33.9605C66.0314 33.4647 65.6586 33.3821 65.1201 33.6713C64.623 34.0431 63.7945 34.4976 62.7174 34.4976C60.6462 34.4976 59.362 32.969 59.362 31.1511C59.362 29.3333 60.6462 27.846 62.5931 27.846C63.5045 27.846 64.2087 28.2178 64.6644 28.507C65.1615 28.7549 65.5343 28.7549 65.8243 28.2591L66.1143 27.846C66.4042 27.3916 66.4042 26.9371 65.9486 26.6479C65.3272 26.1934 64.1673 25.5737 62.4274 25.5737C58.8649 25.5737 56.6279 28.1352 56.6279 31.1511C56.6279 34.2497 58.9063 36.7699 62.4689 36.7699Z" fill="white"/>
<path d="M144.408 9.83252H143.496C142.958 9.83252 142.668 10.0391 142.626 10.6175C142.626 10.7414 142.626 10.7414 142.626 10.7414V10.8241C142.544 10.7414 141.674 9.87383 139.768 9.87383C136.868 9.87383 134.507 12.2701 134.507 15.2034C134.507 18.1367 136.868 20.5329 139.768 20.5329C140.804 20.5329 141.839 20.161 142.626 19.6653C142.626 20.2437 142.916 20.5329 143.496 20.5329H144.408C144.78 20.5329 145.029 20.4089 145.153 20.2024C145.236 20.0784 145.278 19.8719 145.278 19.6653V15.162V10.7001C145.278 10.163 144.988 9.83252 144.408 9.83252ZM139.975 18.2193C138.401 18.2193 137.075 16.9799 137.075 15.2034C137.075 13.4268 138.36 12.1874 139.975 12.1874C141.549 12.1874 142.875 13.4268 142.875 15.2034C142.916 16.9799 141.591 18.2193 139.975 18.2193Z" fill="white"/>
<path d="M149.13 6.65137H148.219C147.639 6.65137 147.349 6.98188 147.349 7.51896V19.6653C147.349 20.2437 147.639 20.5329 148.219 20.5329H149.13C149.71 20.5329 150 20.2024 150 19.6653V7.51896C150 6.94057 149.71 6.65137 149.13 6.65137Z" fill="white"/>
<path d="M82.1873 6.65137H81.2759C80.696 6.65137 80.406 6.98188 80.406 7.51896V19.6653C80.406 20.2437 80.696 20.5329 81.2759 20.5329H82.1873C82.7672 20.5329 83.0572 20.2024 83.0572 19.6653V7.51896C83.0572 6.94057 82.7258 6.65137 82.1873 6.65137Z" fill="white"/>
<path d="M98.7157 20.4505H99.627C100.207 20.4505 100.497 20.1613 100.497 19.5829V16.1125C100.497 14.1707 101.45 12.229 103.397 12.229C103.977 12.229 104.308 11.8984 104.308 11.3614V10.5351C104.308 9.95668 104.101 9.66748 103.521 9.66748C102.03 9.66748 100.828 11.0722 100.414 12.3529H100.373C100.373 12.3529 100.456 12.0224 100.456 11.6092V10.6177C100.456 10.0393 100.124 9.75011 99.5856 9.75011H98.7571C98.1772 9.75011 97.8872 10.0806 97.8872 10.6177V19.5416C97.8458 20.1613 98.1357 20.4505 98.7157 20.4505Z" fill="white"/>
<path d="M107.456 19.872C107.539 19.9133 107.622 19.9546 107.705 19.9959C108.533 20.4504 109.486 20.6983 110.605 20.6983C110.936 20.6983 111.226 20.657 111.516 20.657C111.723 20.6156 111.889 20.6156 112.055 20.5743C113.007 20.3678 113.753 19.9546 114.25 19.6654C114.333 19.6241 114.416 19.5415 114.457 19.5002C114.581 19.3762 114.664 19.2523 114.664 19.087C114.706 18.9218 114.623 18.7152 114.54 18.5086L114.374 18.2194L114.291 18.0955C114.167 17.8476 114.002 17.7237 113.794 17.6823C113.753 17.6823 113.753 17.6823 113.712 17.6823C113.67 17.6823 113.67 17.6823 113.629 17.6823C113.463 17.6823 113.297 17.7237 113.09 17.8063C112.593 18.1368 111.765 18.5086 110.77 18.5086C110.356 18.5086 109.983 18.426 109.61 18.302C109.528 18.2607 109.445 18.2194 109.362 18.1781C109.279 18.1368 109.196 18.0955 109.113 18.0542C108.906 17.9302 108.699 17.8063 108.533 17.641C108.409 17.5584 108.326 17.4345 108.243 17.3105C107.871 16.8561 107.663 16.2777 107.581 15.534H114.084C114.167 15.534 114.209 15.534 114.291 15.534C114.333 15.534 114.333 15.534 114.374 15.4927C114.457 15.4514 114.54 15.4101 114.623 15.3687C114.664 15.3274 114.706 15.2861 114.747 15.2448C114.789 15.2035 114.83 15.1622 114.871 15.1209C114.954 14.9556 115.037 14.7904 115.037 14.6251C115.037 13.2617 114.664 12.0636 113.96 11.1547C113.753 10.9068 113.546 10.7003 113.339 10.4937C113.214 10.4111 113.09 10.3284 112.966 10.2458C112.883 10.2045 112.842 10.1632 112.759 10.1219C112.552 9.99791 112.345 9.91528 112.096 9.83266C111.557 9.62608 110.977 9.54346 110.315 9.54346C109.072 9.54346 107.995 9.87397 107.125 10.4937C107.001 10.5763 106.876 10.6589 106.752 10.7829C106.545 10.9481 106.379 11.1134 106.214 11.32C105.344 12.3115 104.888 13.6336 104.888 15.1622C104.847 17.1039 105.799 18.8804 107.456 19.872ZM110.232 11.5265C111.433 11.5265 112.345 12.3941 112.386 13.8814H107.663C107.912 12.4768 108.865 11.5265 110.232 11.5265Z" fill="white"/>
<path d="M122.204 11.7742C123.115 11.7742 123.819 12.1461 124.275 12.4353C124.772 12.6831 125.145 12.6831 125.435 12.1874L125.725 11.7742C126.015 11.3198 126.015 10.8653 125.559 10.5761C124.938 10.1217 123.778 9.50195 122.038 9.50195C118.475 9.50195 116.239 12.0634 116.239 15.0794C116.239 18.1779 118.517 20.6568 122.038 20.6568C123.902 20.6568 125.186 19.9131 125.849 19.4173C126.263 19.1281 126.346 18.715 126.098 18.2605L125.891 17.8474C125.601 17.3516 125.228 17.269 124.689 17.5582C124.192 17.93 123.364 18.3845 122.287 18.3845C120.215 18.3845 118.931 16.8559 118.931 15.038C118.931 13.2615 120.215 11.7742 122.204 11.7742Z" fill="white"/>
<path d="M62.5931 11.7742C63.5045 11.7742 64.2087 12.1461 64.6644 12.4353C65.1615 12.6831 65.5343 12.6831 65.8243 12.1874L66.1143 11.7742C66.4042 11.3198 66.4042 10.8653 65.9486 10.5761C65.3272 10.1217 64.1673 9.50195 62.4274 9.50195C58.8649 9.50195 56.6279 12.0634 56.6279 15.0794C56.6279 18.1779 58.9063 20.6568 62.4274 20.6568C64.2916 20.6568 65.5757 19.9131 66.2385 19.4173C66.6528 19.1281 66.7356 18.715 66.4871 18.2605L66.28 17.8474C65.99 17.3516 65.6172 17.269 65.0786 17.5582C64.5815 17.93 63.753 18.3845 62.676 18.3845C60.6047 18.3845 59.3206 16.8559 59.3206 15.038C59.362 13.2615 60.6462 11.7742 62.5931 11.7742Z" fill="white"/>
<path d="M73.0736 20.6983C76.3047 20.6983 78.9559 18.3847 78.9559 15.1209C78.9559 11.857 76.3047 9.54346 73.0736 9.54346C69.8424 9.54346 67.2327 11.857 67.2327 15.1209C67.1912 18.426 69.801 20.6983 73.0736 20.6983ZM73.0736 11.8157C74.8134 11.8157 76.2633 13.1791 76.2633 15.1209C76.2633 17.1039 74.8134 18.426 73.0736 18.426C71.3337 18.426 69.9253 17.1039 69.9253 15.1209C69.8839 13.1791 71.3337 11.8157 73.0736 11.8157Z" fill="white"/>
<path d="M90.555 20.6983C93.7862 20.6983 96.4374 18.3847 96.4374 15.1209C96.4374 11.857 93.7862 9.54346 90.555 9.54346C87.3239 9.54346 84.7141 11.857 84.7141 15.1209C84.6727 18.426 87.2825 20.6983 90.555 20.6983ZM90.555 11.8157C92.2949 11.8157 93.7448 13.1791 93.7448 15.1209C93.7448 17.1039 92.2949 18.426 90.555 18.426C88.8152 18.426 87.4067 17.1039 87.4067 15.1209C87.3653 13.1791 88.8152 11.8157 90.555 11.8157Z" fill="white"/>
<path d="M133.223 10.4524H131.897V8.92375C131.897 8.34535 131.607 8.05615 131.027 8.05615H130.116C129.536 8.05615 129.246 8.38667 129.246 8.92375V10.4524H127.92C127.506 10.4524 127.133 10.8242 127.133 11.2373V11.7744C127.133 12.1876 127.506 12.5594 127.92 12.5594H129.246V19.6241C129.246 20.2025 129.536 20.4917 130.116 20.4917H131.027C131.607 20.4917 131.897 20.1612 131.897 19.6241V12.6007H133.223C133.637 12.6007 134.01 12.2289 134.01 11.8157V11.2787C134.01 10.8242 133.678 10.4524 133.223 10.4524Z" fill="white"/>
</g>
<defs>
<clipPath id="clip0_675_4176">
<rect width="150" height="61.4754" fill="white"/>
</clipPath>
</defs>
</svg>
